<svg width="169" height="29" viewBox="0 0 169 29" fill="none" xmlns="http://www.w3.org/2000/svg">
<path d="M17.2165 22.168C17.8405 21.712 18.4045 21.16 18.9085 20.512C19.4125 19.84 19.8325 19.504 20.1685 19.504C20.5285 19.504 20.7085 20.032 20.7085 21.088C20.7085 22.12 20.4085 23.104 19.8085 24.04C19.2325 24.952 18.4645 25.72 17.5045 26.344C15.5365 27.64 13.2085 28.288 10.5205 28.288C7.25645 28.288 4.72445 27.472 2.92445 25.84C1.12445 24.208 0.224453 21.94 0.224453 19.036C0.224453 15.46 1.08845 12.064 2.81645 8.848C3.39245 7.792 4.04045 6.82 4.76045 5.932C4.20845 5.284 3.76445 4.612 3.42845 3.916C3.11645 3.196 2.96045 2.656 2.96045 2.296C2.96045 1.648 3.20045 1.324 3.68045 1.324C4.01645 1.348 4.40045 1.576 4.83245 2.008L5.94845 3.088C6.23645 3.376 6.53645 3.616 6.84845 3.808C9.22445 1.792 11.7805 0.783998 14.5165 0.783998C17.2765 0.783998 19.0645 1.552 19.8805 3.088C20.1685 3.664 20.3125 4.372 20.3125 5.212C20.3125 6.484 19.7605 7.552 18.6565 8.416C17.5525 9.28 16.0645 9.712 14.1925 9.712C12.3445 9.712 10.4245 9.328 8.43245 8.56C6.72845 11.464 5.87645 14.5 5.87645 17.668C5.87645 22.06 7.62845 24.256 11.1325 24.256C13.2925 24.256 15.3205 23.56 17.2165 22.168ZM10.1605 6.328C11.3845 6.736 12.7165 6.94 14.1565 6.94C15.5965 6.94 16.3165 6.544 16.3165 5.752C16.3165 4.816 15.7285 4.348 14.5525 4.348C12.9445 4.348 11.4805 5.008 10.1605 6.328ZM30.8903 15.904C30.8903 15.04 30.3743 14.608 29.3423 14.608C28.3343 14.608 27.3383 15.4 26.3543 16.984C25.3703 18.544 24.7583 20.14 24.5183 21.772C24.5663 22.324 24.6143 22.876 24.6623 23.428C24.7103 23.98 24.7343 24.52 24.7343 25.048C24.7343 26.32 24.3143 27.184 23.4743 27.64C23.0903 27.856 22.7183 28.06 22.3583 28.252C22.0223 28.444 21.6263 28.54 21.1703 28.54C20.7143 28.54 20.3063 28.24 19.9463 27.64C19.6103 27.016 19.4423 26.056 19.4423 24.76C19.4423 21.136 19.7063 17.992 20.2343 15.328C21.0503 11.2 22.6703 6.784 25.0943 2.08C25.4303 1.432 25.9223 1.12 26.5703 1.144C27.2183 1.144 27.7463 1.588 28.1543 2.476C28.5623 3.364 28.7543 4.108 28.7303 4.708C28.7303 5.308 28.6343 5.896 28.4423 6.472C28.2743 7.024 28.0463 7.576 27.7583 8.128C27.4943 8.656 27.1823 9.208 26.8223 9.784C26.4863 10.336 26.1503 10.936 25.8143 11.584L25.2743 14.176C26.2103 12.616 27.4703 11.572 29.0543 11.044C29.6303 10.852 30.2663 10.756 30.9623 10.756C32.5943 10.756 33.8303 11.128 34.6703 11.872C35.5103 12.592 35.9303 13.624 35.9303 14.968C35.9303 16.288 35.7503 17.632 35.3903 19C35.0543 20.368 34.8023 21.352 34.6343 21.952C34.4903 22.528 34.4183 23.008 34.4183 23.392C34.4183 23.776 34.5503 23.968 34.8143 23.968C35.1743 23.968 35.6183 23.74 36.1463 23.284C36.6743 22.828 37.2023 22.336 37.7303 21.808C38.2583 21.256 38.7383 20.752 39.1703 20.296C39.6263 19.84 39.9383 19.612 40.1063 19.612C40.4423 19.612 40.6103 20.02 40.6103 20.836C40.6103 22.516 39.7823 24.136 38.1263 25.696C35.3423 27.328 33.5663 28.144 32.7983 28.144C32.7263 28.144 32.6783 28.132 32.6543 28.108C30.7343 28.108 29.7743 26.572 29.7743 23.5C29.7743 22.18 29.8943 20.968 30.1343 19.864C30.3983 18.76 30.5903 17.956 30.7103 17.452C30.8303 16.948 30.8903 16.432 30.8903 15.904ZM47.1887 24.076C49.0607 24.076 50.8727 23.332 52.6247 21.844C53.2727 21.292 53.8007 20.788 54.2087 20.332C54.6167 19.852 54.9287 19.612 55.1447 19.612C55.4807 19.612 55.6487 19.948 55.6487 20.62C55.6487 21.292 55.4687 22.048 55.1087 22.888C54.7487 23.704 54.1487 24.508 53.3087 25.3C51.2447 27.244 48.4127 28.216 44.8127 28.216C41.9567 28.216 40.0127 27.184 38.9807 25.12C38.6207 24.4 38.4407 23.368 38.4407 22.024C38.4407 20.68 38.7047 19.288 39.2327 17.848C39.7607 16.384 40.4567 15.124 41.3207 14.068C42.2087 13.012 43.2287 12.196 44.3807 11.62C45.5327 11.02 46.7567 10.72 48.0527 10.72C49.3727 10.72 50.3807 11.044 51.0767 11.692C51.7967 12.34 52.1567 13.18 52.1567 14.212C52.1567 15.244 51.8927 16.096 51.3647 16.768C50.8607 17.416 50.2007 17.968 49.3847 18.424C48.5687 18.856 47.6567 19.252 46.6487 19.612C45.6647 19.948 44.6927 20.332 43.7327 20.764V21.664C43.7567 22.528 44.1167 23.14 44.8127 23.5C45.5087 23.86 46.3007 24.052 47.1887 24.076ZM46.5767 13.924C45.3287 13.924 44.4647 15.376 43.9847 18.28C44.4887 17.944 44.9567 17.644 45.3887 17.38C45.8447 17.116 46.2407 16.864 46.5767 16.624C47.2967 16.096 47.6687 15.496 47.6927 14.824C47.6927 14.224 47.3207 13.924 46.5767 13.924ZM68.1396 19.504C68.5716 19.504 68.7876 19.876 68.7876 20.62C68.7876 21.34 68.5956 22.12 68.2116 22.96C67.8516 23.8 67.2876 24.616 66.5196 25.408C65.7756 26.176 64.8156 26.836 63.6396 27.388C62.4636 27.94 61.0716 28.216 59.4636 28.216C57.8796 28.216 56.4876 27.748 55.2876 26.812C54.0876 25.852 53.4876 24.484 53.4876 22.708C53.4876 20.908 53.7636 19.288 54.3156 17.848C54.8916 16.384 55.6356 15.124 56.5476 14.068C57.4836 13.012 58.5396 12.196 59.7156 11.62C60.8916 11.02 62.0076 10.72 63.0636 10.72C64.9116 10.72 65.8356 11.452 65.8356 12.916C65.8356 13.756 65.6556 14.428 65.2956 14.932C64.9596 15.436 64.6116 15.688 64.2516 15.688C63.7716 15.688 63.3516 15.52 62.9916 15.184C62.6316 14.848 62.2356 14.68 61.8036 14.68C61.3716 14.656 60.9516 14.86 60.5436 15.292C60.1596 15.724 59.8356 16.276 59.5716 16.948C59.0436 18.292 58.7796 19.864 58.7796 21.664C58.8036 22.528 59.1996 23.176 59.9676 23.608C60.4956 23.896 61.1196 24.052 61.8396 24.076C62.5596 24.076 63.2436 23.836 63.8916 23.356C64.5636 22.876 65.1756 22.36 65.7276 21.808C66.2796 21.232 66.7596 20.704 67.1676 20.224C67.5996 19.744 67.9236 19.504 68.1396 19.504ZM77.508 20.116C78.156 22.684 79.248 23.968 80.784 23.968C81.528 23.968 82.2 23.74 82.8 23.284C83.4 22.828 83.94 22.336 84.42 21.808C84.9 21.256 85.32 20.752 85.68 20.296C86.04 19.84 86.376 19.612 86.688 19.612C87 19.612 87.156 20.02 87.156 20.836C87.156 22.54 86.364 24.184 84.78 25.768C83.196 27.352 81.42 28.132 79.452 28.108C77.508 28.108 75.768 26.392 74.232 22.96C73.8 22 73.392 21.028 73.008 20.044L72.756 24.976C72.756 25.432 72.732 25.888 72.684 26.344C72.636 26.776 72.432 27.136 72.072 27.424C71.136 28.168 70.188 28.54 69.228 28.54C68.1 28.54 67.536 27.376 67.536 25.048C67.536 21.688 67.932 18.172 68.724 14.5C69.516 10.828 70.284 8.068 71.028 6.22C71.796 4.348 72.384 3.1 72.792 2.476C73.224 1.852 73.56 1.468 73.8 1.324C74.04 1.18 74.304 1.108 74.592 1.108C74.904 1.108 75.228 1.264 75.564 1.576C75.9 1.864 76.26 2.32 76.644 2.944C77.028 3.544 77.22 4.144 77.22 4.744C77.244 5.32 77.148 5.896 76.932 6.472C76.74 7.024 76.476 7.576 76.14 8.128C75.804 8.656 75.432 9.208 75.024 9.784C74.616 10.336 74.208 10.936 73.8 11.584L73.44 14.608C74.28 12.856 75.516 11.68 77.148 11.08C77.724 10.864 78.396 10.756 79.164 10.756C80.7 10.756 81.876 11.128 82.692 11.872C83.508 12.592 83.916 13.66 83.916 15.076C83.916 16.492 83.208 17.692 81.792 18.676C80.376 19.66 78.948 20.14 77.508 20.116ZM78.876 15.904C78.876 15.04 78.384 14.608 77.4 14.608C76.416 14.608 75.348 15.556 74.196 17.452C73.86 18.004 73.572 18.568 73.332 19.144C75.828 19 77.532 18.328 78.444 17.128C78.732 16.744 78.876 16.336 78.876 15.904ZM120.772 19.504C121.18 19.504 121.384 20.056 121.384 21.16C121.384 21.76 121.132 22.492 120.628 23.356C120.124 24.196 119.464 24.976 118.648 25.696C117.856 26.392 116.968 26.968 115.984 27.424C115 27.88 113.956 28.108 112.852 28.108C111.772 28.108 110.92 27.76 110.296 27.064C109.696 26.344 109.396 25.552 109.396 24.688C109.396 23.8 109.54 22.804 109.828 21.7C110.116 20.596 110.428 19.444 110.764 18.244C111.676 15.052 112.144 12.808 112.168 11.512C112.168 10.96 112.096 10.54 111.952 10.252C111.808 9.94 111.532 9.784 111.124 9.784C110.404 9.784 109.636 10.216 108.82 11.08C108.004 11.944 107.236 13.048 106.516 14.392C104.86 17.464 103.984 20.464 103.888 23.392C103.936 23.728 103.984 24.064 104.032 24.4C104.08 24.736 104.104 25.096 104.104 25.48C104.104 26.248 103.72 26.956 102.952 27.604C102.208 28.228 101.368 28.54 100.432 28.54C99.8796 28.54 99.4716 28.276 99.2076 27.748C98.9436 27.196 98.8116 26.524 98.8116 25.732C98.8116 24.94 98.9916 23.86 99.3516 22.492C99.7116 21.124 100.108 19.672 100.54 18.136C101.692 14.08 102.28 11.056 102.304 9.064C102.304 8.056 102.172 7.264 101.908 6.688C101.668 6.112 101.188 5.824 100.468 5.824C99.1716 5.824 97.8876 6.748 96.6156 8.596C95.3436 10.444 94.2036 13.312 93.1956 17.2C92.9316 18.208 92.7276 19.084 92.5836 19.828L92.5476 20.512C93.0036 22.72 93.2316 24.16 93.2316 24.832C93.2316 26.224 92.7396 27.16 91.7556 27.64C91.2996 27.856 90.8556 28.06 90.4236 28.252C90.0156 28.444 89.5716 28.54 89.0916 28.54C87.8916 28.54 87.2916 27.4 87.2916 25.12C87.2916 22.816 87.9276 18.328 89.1996 11.656C89.6556 9.256 89.8836 7.912 89.8836 7.624C89.8836 5.68 89.3916 4.708 88.4076 4.708C88.0716 4.708 87.7596 4.804 87.4716 4.996C87.2076 5.188 86.9316 5.392 86.6436 5.608C86.3796 5.824 86.1036 6.028 85.8156 6.22C85.5276 6.412 85.1916 6.508 84.8076 6.508C84.4476 6.508 84.2676 6.184 84.2676 5.536C84.2676 4.216 84.8796 3.136 86.1036 2.296C87.2796 1.432 88.7076 0.999998 90.3876 0.999998C92.5476 0.999998 93.8196 2.008 94.2036 4.024C94.2996 4.624 94.3716 5.26 94.4196 5.932C96.1956 2.596 98.4396 0.927999 101.152 0.927999C104.104 0.927999 105.796 2.344 106.228 5.176C106.372 5.992 106.432 6.868 106.408 7.804V8.092C107.968 5.932 109.816 4.852 111.952 4.852C114.976 4.852 116.488 6.676 116.488 10.324C116.488 11.908 116.236 13.768 115.732 15.904C115.252 18.016 114.892 19.54 114.652 20.476C114.436 21.388 114.328 22.096 114.328 22.6C114.328 23.512 114.64 23.968 115.264 23.968C115.912 23.968 117.436 22.72 119.836 20.224C120.268 19.744 120.58 19.504 120.772 19.504ZM141.694 19.504C142.126 19.504 142.342 20.056 142.342 21.16C142.342 21.76 142.09 22.492 141.586 23.356C141.082 24.196 140.422 24.976 139.606 25.696C138.814 26.392 137.926 26.968 136.942 27.424C135.958 27.88 134.998 28.108 134.062 28.108C132.79 28.108 131.938 26.992 131.506 24.76C130.882 25.792 130.066 26.644 129.058 27.316C128.05 27.964 126.694 28.288 124.99 28.288C123.31 28.288 121.954 27.76 120.922 26.704C119.89 25.648 119.386 24.364 119.41 22.852C119.41 18.772 120.766 15.556 123.478 13.204C124.63 12.22 125.698 11.572 126.682 11.26C127.69 10.948 128.746 10.792 129.85 10.792C130.954 10.792 131.854 10.984 132.55 11.368C132.886 10.672 133.27 10.324 133.702 10.324C134.542 10.324 135.334 10.696 136.078 11.44C136.846 12.16 137.23 12.844 137.23 13.492C136.894 14.284 136.402 15.232 135.754 16.336C135.562 17.44 135.466 18.988 135.466 20.98C135.466 22.972 135.718 23.968 136.222 23.968C136.846 23.968 138.358 22.72 140.758 20.224C141.19 19.744 141.502 19.504 141.694 19.504ZM124.702 21.664C124.702 23.512 125.386 24.436 126.754 24.436C128.218 24.412 129.43 23.632 130.39 22.096C130.726 21.568 131.002 20.92 131.218 20.152C131.218 17.464 131.458 15.16 131.938 13.24C129.994 13.624 128.302 14.56 126.862 16.048C125.422 17.536 124.702 19.408 124.702 21.664ZM142.127 26.056C141.863 25.408 141.671 24.664 141.551 23.824C141.431 22.96 141.371 21.76 141.371 20.224C141.371 18.688 141.659 16.612 142.235 13.996H140.615C140.327 13.996 140.183 13.876 140.183 13.636C140.183 13.06 140.231 12.592 140.327 12.232C140.447 11.848 140.711 11.416 141.119 10.936H141.983C142.319 10.936 142.679 10.924 143.063 10.9C144.215 7.204 145.391 5.356 146.591 5.356C147.551 5.38 148.223 5.992 148.607 7.192C148.703 7.528 148.811 7.888 148.931 8.272L147.455 10.864C149.135 10.912 150.191 10.936 150.623 10.936C151.079 10.936 151.319 10.984 151.343 11.08C151.391 11.152 151.415 11.272 151.415 11.44C151.415 11.872 151.307 12.412 151.091 13.06C150.899 13.708 150.671 14.02 150.407 13.996L146.807 13.816C146.303 16.744 146.051 19.168 146.051 21.088C146.051 23.008 146.327 23.968 146.879 23.968C147.335 23.968 148.163 23.596 149.363 22.852C150.563 22.084 151.427 21.352 151.955 20.656C152.483 19.96 152.915 19.612 153.251 19.612C153.587 19.612 153.755 20.02 153.755 20.836C153.755 21.652 153.467 22.492 152.891 23.356C152.315 24.196 151.583 24.976 150.695 25.696C149.831 26.392 148.859 26.968 147.779 27.424C146.723 27.88 145.799 28.108 145.007 28.108C144.215 28.108 143.603 27.928 143.171 27.568C142.763 27.184 142.415 26.68 142.127 26.056ZM160.357 24.076C162.229 24.076 164.041 23.332 165.793 21.844C166.441 21.292 166.969 20.788 167.377 20.332C167.785 19.852 168.097 19.612 168.313 19.612C168.649 19.612 168.817 19.948 168.817 20.62C168.817 21.292 168.637 22.048 168.277 22.888C167.917 23.704 167.317 24.508 166.477 25.3C164.413 27.244 161.581 28.216 157.981 28.216C155.125 28.216 153.181 27.184 152.149 25.12C151.789 24.4 151.609 23.368 151.609 22.024C151.609 20.68 151.873 19.288 152.401 17.848C152.929 16.384 153.625 15.124 154.489 14.068C155.377 13.012 156.397 12.196 157.549 11.62C158.701 11.02 159.925 10.72 161.221 10.72C162.541 10.72 163.549 11.044 164.245 11.692C164.965 12.34 165.325 13.18 165.325 14.212C165.325 15.244 165.061 16.096 164.533 16.768C164.029 17.416 163.369 17.968 162.553 18.424C161.737 18.856 160.825 19.252 159.817 19.612C158.833 19.948 157.861 20.332 156.901 20.764V21.664C156.925 22.528 157.285 23.14 157.981 23.5C158.677 23.86 159.469 24.052 160.357 24.076ZM159.745 13.924C158.497 13.924 157.633 15.376 157.153 18.28C157.657 17.944 158.125 17.644 158.557 17.38C159.013 17.116 159.409 16.864 159.745 16.624C160.465 16.096 160.837 15.496 160.861 14.824C160.861 14.224 160.489 13.924 159.745 13.924Z" fill="#F2F4F3"/>
</svg>