<?xml version="1.0" standalone="no"?>
<!DOCTYPE svg PUBLIC "-//W3C//DTD SVG 20010904//EN"
 "http://www.w3.org/TR/2001/REC-SVG-20010904/DTD/svg10.dtd">
<svg version="1.0" xmlns="http://www.w3.org/2000/svg"
 width="700.000000pt" height="700.000000pt" viewBox="0 0 700.000000 700.000000"
 preserveAspectRatio="xMidYMid meet">
<metadata>
Created by potrace 1.11, written by Peter Selinger 2001-2013
</metadata>
<g transform="translate(0.000000,700.000000) scale(0.100000,-0.100000)"
fill="#000000" stroke="none">
<path d="M3365 6994 c-696 -32 -1346 -254 -1894 -647 -828 -595 -1347 -1491
-1452 -2512 -14 -142 -14 -528 0 -670 64 -620 282 -1202 634 -1694 595 -828
1491 -1347 2512 -1452 61 -6 211 -11 335 -11 124 0 275 5 335 11 1021 105
1917 624 2512 1452 352 492 570 1074 634 1694 14 142 14 528 0 670 -105 1021
-624 1917 -1452 2512 -490 351 -1096 578 -1689 632 -125 11 -377 19 -475 15z
m-648 -2408 c122 -39 196 -121 214 -239 20 -128 -31 -238 -145 -313 -85 -57
-142 -69 -316 -68 -157 0 -224 11 -357 58 l-42 15 -25 -42 c-39 -68 -96 -214
-123 -317 -34 -128 -43 -379 -19 -484 33 -139 111 -236 221 -273 65 -22 226
-22 311 1 147 39 256 105 380 233 50 51 95 93 100 93 39 -1 59 -80 44 -173
-34 -214 -240 -394 -519 -452 -167 -34 -374 -28 -521 17 -216 66 -361 210
-427 424 -25 83 -25 370 0 499 46 226 145 457 268 620 l37 49 -28 36 c-77 97
-121 239 -87 284 26 35 73 14 175 -79 l93 -84 57 43 c107 80 219 133 342 161
85 19 294 14 367 -9z m903 -13 c45 -18 96 -67 121 -116 11 -21 26 -77 32 -123
l13 -86 53 81 c126 192 283 281 476 268 221 -13 323 -136 341 -409 l7 -96 51
56 c101 111 216 164 352 164 141 -1 230 -53 283 -165 34 -74 43 -125 42 -257
-1 -112 -19 -246 -56 -405 -110 -469 -113 -498 -70 -540 13 -14 31 -25 38 -25
29 0 136 82 264 204 81 77 138 124 146 120 23 -9 37 -51 37 -113 0 -180 -261
-444 -495 -500 -78 -19 -186 -16 -236 6 -61 27 -115 90 -134 158 -14 46 -15
69 -6 144 11 90 20 127 106 446 81 302 103 464 73 529 -16 36 -67 44 -121 20
-161 -73 -388 -484 -443 -804 -12 -74 -14 -125 -9 -226 6 -120 5 -134 -13
-171 -42 -82 -144 -145 -239 -147 -69 -1 -96 24 -119 114 -26 103 -14 181 83
535 117 429 153 610 153 772 0 112 -11 162 -45 200 -21 25 -30 28 -82 27 -72
0 -119 -24 -189 -93 -138 -136 -263 -420 -355 -805 -31 -130 -32 -142 -21
-205 47 -262 49 -328 12 -402 -23 -44 -56 -69 -147 -111 -88 -40 -161 -43
-197 -9 -46 44 -61 103 -60 241 0 187 32 414 126 920 70 376 69 483 -4 534
-36 26 -72 19 -137 -26 -136 -94 -179 -109 -201 -69 -25 48 0 158 52 223 37
47 133 111 200 134 106 35 243 38 318 7z"/>
<path d="M2454 4340 c-27 -4 -72 -17 -98 -29 -53 -23 -146 -88 -146 -101 0
-16 143 -41 239 -42 138 -2 191 20 191 81 0 73 -71 108 -186 91z"/>
</g>
</svg>
