<svg width="21" height="11" viewBox="0 0 21 11" fill="none" xmlns="http://www.w3.org/2000/svg">
<path d="M6.384 8.056C6.592 7.904 6.78 7.72 6.948 7.504C7.116 7.28 7.256 7.168 7.368 7.168C7.488 7.168 7.548 7.344 7.548 7.696C7.548 8.04 7.448 8.368 7.248 8.68C7.056 8.984 6.8 9.24 6.48 9.448C5.824 9.88 5.048 10.096 4.152 10.096C3.064 10.096 2.22 9.824 1.62 9.28C1.02 8.736 0.72 7.98 0.72 7.012C0.72 5.82 1.008 4.688 1.584 3.616C1.776 3.264 1.992 2.94 2.232 2.644C2.048 2.428 1.9 2.204 1.788 1.972C1.684 1.732 1.632 1.552 1.632 1.432C1.632 1.216 1.712 1.108 1.872 1.108C1.984 1.116 2.112 1.192 2.256 1.336L2.628 1.696C2.724 1.792 2.824 1.872 2.928 1.936C3.72 1.264 4.572 0.927999 5.484 0.927999C6.404 0.927999 7 1.184 7.272 1.696C7.368 1.888 7.416 2.124 7.416 2.404C7.416 2.828 7.232 3.184 6.864 3.472C6.496 3.76 6 3.904 5.376 3.904C4.76 3.904 4.12 3.776 3.456 3.52C2.888 4.488 2.604 5.5 2.604 6.556C2.604 8.02 3.188 8.752 4.356 8.752C5.076 8.752 5.752 8.52 6.384 8.056ZM4.032 2.776C4.44 2.912 4.884 2.98 5.364 2.98C5.844 2.98 6.084 2.848 6.084 2.584C6.084 2.272 5.888 2.116 5.496 2.116C4.96 2.116 4.472 2.336 4.032 2.776ZM20.0782 7.168C20.2142 7.168 20.2822 7.352 20.2822 7.72C20.2822 7.92 20.1982 8.164 20.0302 8.452C19.8622 8.732 19.6422 8.992 19.3702 9.232C19.1062 9.464 18.8102 9.656 18.4822 9.808C18.1542 9.96 17.8062 10.036 17.4382 10.036C17.0782 10.036 16.7942 9.92 16.5862 9.688C16.3862 9.448 16.2862 9.184 16.2862 8.896C16.2862 8.6 16.3342 8.268 16.4302 7.9C16.5262 7.532 16.6302 7.148 16.7422 6.748C17.0462 5.684 17.2022 4.936 17.2102 4.504C17.2102 4.32 17.1862 4.18 17.1382 4.084C17.0902 3.98 16.9982 3.928 16.8622 3.928C16.6222 3.928 16.3662 4.072 16.0942 4.36C15.8222 4.648 15.5662 5.016 15.3262 5.464C14.7742 6.488 14.4822 7.488 14.4502 8.464C14.4662 8.576 14.4822 8.688 14.4982 8.8C14.5142 8.912 14.5222 9.032 14.5222 9.16C14.5222 9.416 14.3942 9.652 14.1382 9.868C13.8902 10.076 13.6102 10.18 13.2982 10.18C13.1142 10.18 12.9782 10.092 12.8902 9.916C12.8022 9.732 12.7582 9.508 12.7582 9.244C12.7582 8.98 12.8182 8.62 12.9382 8.164C13.0582 7.708 13.1902 7.224 13.3342 6.712C13.7182 5.36 13.9142 4.352 13.9222 3.688C13.9222 3.352 13.8782 3.088 13.7902 2.896C13.7102 2.704 13.5502 2.608 13.3102 2.608C12.8782 2.608 12.4502 2.916 12.0262 3.532C11.6022 4.148 11.2222 5.104 10.8862 6.4C10.7982 6.736 10.7302 7.028 10.6822 7.276L10.6702 7.504C10.8222 8.24 10.8982 8.72 10.8982 8.944C10.8982 9.408 10.7342 9.72 10.4062 9.88C10.2542 9.952 10.1062 10.02 9.96216 10.084C9.82616 10.148 9.67816 10.18 9.51816 10.18C9.11816 10.18 8.91816 9.8 8.91816 9.04C8.91816 8.272 9.13016 6.776 9.55416 4.552C9.70616 3.752 9.78216 3.304 9.78216 3.208C9.78216 2.56 9.61816 2.236 9.29016 2.236C9.17816 2.236 9.07416 2.268 8.97816 2.332C8.89016 2.396 8.79816 2.464 8.70216 2.536C8.61416 2.608 8.52216 2.676 8.42616 2.74C8.33016 2.804 8.21816 2.836 8.09016 2.836C7.97016 2.836 7.91016 2.728 7.91016 2.512C7.91016 2.072 8.11416 1.712 8.52216 1.432C8.91416 1.144 9.39016 0.999999 9.95016 0.999999C10.6702 0.999999 11.0942 1.336 11.2222 2.008C11.2542 2.208 11.2782 2.42 11.2942 2.644C11.8862 1.532 12.6342 0.976 13.5382 0.976C14.5222 0.976 15.0862 1.448 15.2302 2.392C15.2782 2.664 15.2982 2.956 15.2902 3.268V3.364C15.8102 2.644 16.4262 2.284 17.1382 2.284C18.1462 2.284 18.6502 2.892 18.6502 4.108C18.6502 4.636 18.5662 5.256 18.3982 5.968C18.2382 6.672 18.1182 7.18 18.0382 7.492C17.9662 7.796 17.9302 8.032 17.9302 8.2C17.9302 8.504 18.0342 8.656 18.2422 8.656C18.4582 8.656 18.9662 8.24 19.7662 7.408C19.9102 7.248 20.0142 7.168 20.0782 7.168Z" fill="#F2F4F3"/>
</svg>