<svg width="32" height="32" viewBox="0 0 32 32" fill="none" xmlns="http://www.w3.org/2000/svg">
<circle cx="16" cy="16" r="16" fill="#213142"/>
<path d="M12.384 18.056C12.592 17.904 12.78 17.72 12.948 17.504C13.116 17.28 13.256 17.168 13.368 17.168C13.488 17.168 13.548 17.344 13.548 17.696C13.548 18.04 13.448 18.368 13.248 18.68C13.056 18.984 12.8 19.24 12.48 19.448C11.824 19.88 11.048 20.096 10.152 20.096C9.064 20.096 8.22 19.824 7.62 19.28C7.02 18.736 6.72 17.98 6.72 17.012C6.72 15.82 7.008 14.688 7.584 13.616C7.776 13.264 7.992 12.94 8.232 12.644C8.048 12.428 7.9 12.204 7.788 11.972C7.684 11.732 7.632 11.552 7.632 11.432C7.632 11.216 7.712 11.108 7.872 11.108C7.984 11.116 8.112 11.192 8.256 11.336L8.628 11.696C8.724 11.792 8.824 11.872 8.928 11.936C9.72 11.264 10.572 10.928 11.484 10.928C12.404 10.928 13 11.184 13.272 11.696C13.368 11.888 13.416 12.124 13.416 12.404C13.416 12.828 13.232 13.184 12.864 13.472C12.496 13.76 12 13.904 11.376 13.904C10.76 13.904 10.12 13.776 9.456 13.52C8.888 14.488 8.604 15.5 8.604 16.556C8.604 18.02 9.188 18.752 10.356 18.752C11.076 18.752 11.752 18.52 12.384 18.056ZM10.032 12.776C10.44 12.912 10.884 12.98 11.364 12.98C11.844 12.98 12.084 12.848 12.084 12.584C12.084 12.272 11.888 12.116 11.496 12.116C10.96 12.116 10.472 12.336 10.032 12.776ZM26.0782 17.168C26.2142 17.168 26.2822 17.352 26.2822 17.72C26.2822 17.92 26.1982 18.164 26.0302 18.452C25.8622 18.732 25.6422 18.992 25.3702 19.232C25.1062 19.464 24.8102 19.656 24.4822 19.808C24.1542 19.96 23.8062 20.036 23.4382 20.036C23.0782 20.036 22.7942 19.92 22.5862 19.688C22.3862 19.448 22.2862 19.184 22.2862 18.896C22.2862 18.6 22.3342 18.268 22.4302 17.9C22.5262 17.532 22.6302 17.148 22.7422 16.748C23.0462 15.684 23.2022 14.936 23.2102 14.504C23.2102 14.32 23.1862 14.18 23.1382 14.084C23.0902 13.98 22.9982 13.928 22.8622 13.928C22.6222 13.928 22.3662 14.072 22.0942 14.36C21.8222 14.648 21.5662 15.016 21.3262 15.464C20.7742 16.488 20.4822 17.488 20.4502 18.464C20.4662 18.576 20.4822 18.688 20.4982 18.8C20.5142 18.912 20.5222 19.032 20.5222 19.16C20.5222 19.416 20.3942 19.652 20.1382 19.868C19.8902 20.076 19.6102 20.18 19.2982 20.18C19.1142 20.18 18.9782 20.092 18.8902 19.916C18.8022 19.732 18.7582 19.508 18.7582 19.244C18.7582 18.98 18.8182 18.62 18.9382 18.164C19.0582 17.708 19.1902 17.224 19.3342 16.712C19.7182 15.36 19.9142 14.352 19.9222 13.688C19.9222 13.352 19.8782 13.088 19.7902 12.896C19.7102 12.704 19.5502 12.608 19.3102 12.608C18.8782 12.608 18.4502 12.916 18.0262 13.532C17.6022 14.148 17.2222 15.104 16.8862 16.4C16.7982 16.736 16.7302 17.028 16.6822 17.276L16.6702 17.504C16.8222 18.24 16.8982 18.72 16.8982 18.944C16.8982 19.408 16.7342 19.72 16.4062 19.88C16.2542 19.952 16.1062 20.02 15.9622 20.084C15.8262 20.148 15.6782 20.18 15.5182 20.18C15.1182 20.18 14.9182 19.8 14.9182 19.04C14.9182 18.272 15.1302 16.776 15.5542 14.552C15.7062 13.752 15.7822 13.304 15.7822 13.208C15.7822 12.56 15.6182 12.236 15.2902 12.236C15.1782 12.236 15.0742 12.268 14.9782 12.332C14.8902 12.396 14.7982 12.464 14.7022 12.536C14.6142 12.608 14.5222 12.676 14.4262 12.74C14.3302 12.804 14.2182 12.836 14.0902 12.836C13.9702 12.836 13.9102 12.728 13.9102 12.512C13.9102 12.072 14.1142 11.712 14.5222 11.432C14.9142 11.144 15.3902 11 15.9502 11C16.6702 11 17.0942 11.336 17.2222 12.008C17.2542 12.208 17.2782 12.42 17.2942 12.644C17.8862 11.532 18.6342 10.976 19.5382 10.976C20.5222 10.976 21.0862 11.448 21.2302 12.392C21.2782 12.664 21.2982 12.956 21.2902 13.268V13.364C21.8102 12.644 22.4262 12.284 23.1382 12.284C24.1462 12.284 24.6502 12.892 24.6502 14.108C24.6502 14.636 24.5662 15.256 24.3982 15.968C24.2382 16.672 24.1182 17.18 24.0382 17.492C23.9662 17.796 23.9302 18.032 23.9302 18.2C23.9302 18.504 24.0342 18.656 24.2422 18.656C24.4582 18.656 24.9662 18.24 25.7662 17.408C25.9102 17.248 26.0142 17.168 26.0782 17.168Z" fill="#F2F4F3"/>
</svg>
